<svg version="1.1" xmlns="http://www.w3.org/2000/svg" style="overflow: hidden; position: relative;"><path id="p1" d="M328.0,514.0L340.0,514.0L346.0,502.0L340.0,490.0L328.0,490.0L322.0,502.0L328.0,514.0" fill="#fff" stroke="#000"/><path id="p2" d="M346.0,502.0L358.0,502.0L364.0,490.0L358.0,478.0L346.0,478.0L340.0,490.0L346.0,502.0" fill="#fff" stroke="#000"/><path id="p3" d="M364.0,466.0L376.0,466.0L382.0,454.0L376.0,442.0L364.0,442.0L358.0,454.0L364.0,466.0" fill="#fff" stroke="#000"/><path id="p4" d="M382.0,454.0L394.0,454.0L400.0,442.0L394.0,430.0L382.0,430.0L376.0,442.0L382.0,454.0" fill="#fff" stroke="#000"/><path id="p5" d="M382.0,382.0L394.0,382.0L400.0,370.0L394.0,358.0L382.0,358.0L376.0,370.0L382.0,382.0" fill="#fff" stroke="#000"/><path id="p6" d="M364.0,370.0L376.0,370.0L382.0,358.0L376.0,346.0L364.0,346.0L358.0,358.0L364.0,370.0" fill="#fff" stroke="#000"/><path id="p7" d="M364.0,442.0L376.0,442.0L382.0,430.0L376.0,418.0L364.0,418.0L358.0,430.0L364.0,442.0" fill="#fff" stroke="#000"/><path id="p8" d="M400.0,394.0L412.0,394.0L418.0,382.0L412.0,370.0L400.0,370.0L394.0,382.0L400.0,394.0" fill="#fff" stroke="#000"/><path id="p9" d="M328.0,466.0L340.0,466.0L346.0,454.0L340.0,442.0L328.0,442.0L322.0,454.0L328.0,466.0" fill="#fff" stroke="#000"/><path id="p10" d="M382.0,334.0L394.0,334.0L400.0,322.0L394.0,310.0L382.0,310.0L376.0,322.0L382.0,334.0" fill="#fff" stroke="#000"/><path id="p11" d="M346.0,406.0L358.0,406.0L364.0,394.0L358.0,382.0L346.0,382.0L340.0,394.0L346.0,406.0" fill="#fff" stroke="#000"/><path id="p12" d="M400.0,490.0L412.0,490.0L418.0,478.0L412.0,466.0L400.0,466.0L394.0,478.0L400.0,490.0" fill="#fff" stroke="#000"/><path id="p13" d="M418.0,286.0L430.0,286.0L436.0,274.0L430.0,262.0L418.0,262.0L412.0,274.0L418.0,286.0" fill="#fff" stroke="#000"/><path id="p14" d="M382.0,502.0L394.0,502.0L400.0,490.0L394.0,478.0L382.0,478.0L376.0,490.0L382.0,502.0" fill="#fff" stroke="#000"/><path id="p15" d="M382.0,358.0L394.0,358.0L400.0,346.0L394.0,334.0L382.0,334.0L376.0,346.0L382.0,358.0" fill="#fff" stroke="#000"/><path id="p16" d="M382.0,526.0L394.0,526.0L400.0,514.0L394.0,502.0L382.0,502.0L376.0,514.0L382.0,526.0" fill="#fff" stroke="#000"/><path id="p17" d="M310.0,478.0L322.0,478.0L328.0,466.0L322.0,454.0L310.0,454.0L304.0,466.0L310.0,478.0" fill="#fff" stroke="#000"/><path id="p18" d="M328.0,442.0L340.0,442.0L346.0,430.0L340.0,418.0L328.0,418.0L322.0,430.0L328.0,442.0" fill="#fff" stroke="#000"/><path id="p19" d="M364.0,514.0L376.0,514.0L382.0,502.0L376.0,490.0L364.0,490.0L358.0,502.0L364.0,514.0" fill="#fff" stroke="#000"/><path id="p20" d="M400.0,466.0L412.0,466.0L418.0,454.0L412.0,442.0L400.0,442.0L394.0,454.0L400.0,466.0" fill="#fff" stroke="#000"/><path id="p21" d="M346.0,382.0L358.0,382.0L364.0,370.0L358.0,358.0L346.0,358.0L340.0,370.0L346.0,382.0" fill="#fff" stroke="#000"/><path id="p22" d="M382.0,478.0L394.0,478.0L400.0,466.0L394.0,454.0L382.0,454.0L376.0,466.0L382.0,478.0" fill="#fff" stroke="#000"/><path id="p23" d="M328.0,490.0L340.0,490.0L346.0,478.0L340.0,466.0L328.0,466.0L322.0,478.0L328.0,490.0" fill="#fff" stroke="#000"/><path id="p24" d="M364.0,346.0L376.0,346.0L382.0,334.0L376.0,322.0L364.0,322.0L358.0,334.0L364.0,346.0" fill="#fff" stroke="#000"/><path id="p25" d="M418.0,454.0L430.0,454.0L436.0,442.0L430.0,430.0L418.0,430.0L412.0,442.0L418.0,454.0" fill="#fff" stroke="#000"/><path id="p26" d="M328.0,418.0L340.0,418.0L346.0,406.0L340.0,394.0L328.0,394.0L322.0,406.0L328.0,418.0" fill="#fff" stroke="#000"/><path id="p27" d="M400.0,298.0L412.0,298.0L418.0,286.0L412.0,274.0L400.0,274.0L394.0,286.0L400.0,298.0" fill="#fff" stroke="#000"/><path id="p28" d="M346.0,478.0L358.0,478.0L364.0,466.0L358.0,454.0L346.0,454.0L340.0,466.0L346.0,478.0" fill="#fff" stroke="#000"/><path id="p29" d="M418.0,382.0L430.0,382.0L436.0,370.0L430.0,358.0L418.0,358.0L412.0,370.0L418.0,382.0" fill="#fff" stroke="#000"/><path id="p30" d="M328.0,394.0L340.0,394.0L346.0,382.0L340.0,370.0L328.0,370.0L322.0,382.0L328.0,394.0" fill="#fff" stroke="#000"/><path id="p31" d="M346.0,430.0L358.0,430.0L364.0,418.0L358.0,406.0L346.0,406.0L340.0,418.0L346.0,430.0" fill="#fff" stroke="#000"/><path id="p32" d="M364.0,394.0L376.0,394.0L382.0,382.0L376.0,370.0L364.0,370.0L358.0,382.0L364.0,394.0" fill="#fff" stroke="#000"/><path id="p33" d="M364.0,322.0L376.0,322.0L382.0,310.0L376.0,298.0L364.0,298.0L358.0,310.0L364.0,322.0" fill="#fff" stroke="#000"/><path id="p34" d="M400.0,322.0L412.0,322.0L418.0,310.0L412.0,298.0L400.0,298.0L394.0,310.0L400.0,322.0" fill="#fff" stroke="#000"/><path id="p35" d="M400.0,418.0L412.0,418.0L418.0,406.0L412.0,394.0L400.0,394.0L394.0,406.0L400.0,418.0" fill="#fff" stroke="#000"/><path id="p36" d="M400.0,274.0L412.0,274.0L418.0,262.0L412.0,250.0L400.0,250.0L394.0,262.0L400.0,274.0" fill="#fff" stroke="#000"/><path id="p37" d="M346.0,334.0L358.0,334.0L364.0,322.0L358.0,310.0L346.0,310.0L340.0,322.0L346.0,334.0" fill="#fff" stroke="#000"/><path id="p38" d="M364.0,418.0L376.0,418.0L382.0,406.0L376.0,394.0L364.0,394.0L358.0,406.0L364.0,418.0" fill="#fff" stroke="#000"/><path id="p39" d="M382.0,310.0L394.0,310.0L400.0,298.0L394.0,286.0L382.0,286.0L376.0,298.0L382.0,310.0" fill="#fff" stroke="#000"/><path id="p40" d="M382.0,406.0L394.0,406.0L400.0,394.0L394.0,382.0L382.0,382.0L376.0,394.0L382.0,406.0" fill="#fff" stroke="#000"/><path id="p41" d="M418.0,262.0L430.0,262.0L436.0,250.0L430.0,238.0L418.0,238.0L412.0,250.0L418.0,262.0" fill="#fff" stroke="#000"/><path id="p42" d="M310.0,502.0L322.0,502.0L328.0,490.0L322.0,478.0L310.0,478.0L304.0,490.0L310.0,502.0" fill="#fff" stroke="#000"/><path id="p43" d="M400.0,370.0L412.0,370.0L418.0,358.0L412.0,346.0L400.0,346.0L394.0,358.0L400.0,370.0" fill="#fff" stroke="#000"/><path id="p44" d="M400.0,346.0L412.0,346.0L418.0,334.0L412.0,322.0L400.0,322.0L394.0,334.0L400.0,346.0" fill="#fff" stroke="#000"/><path id="p45" d="M400.0,442.0L412.0,442.0L418.0,430.0L412.0,418.0L400.0,418.0L394.0,430.0L400.0,442.0" fill="#fff" stroke="#000"/><path id="p46" d="M364.0,490.0L376.0,490.0L382.0,478.0L376.0,466.0L364.0,466.0L358.0,478.0L364.0,490.0" fill="#fff" stroke="#000"/><path id="p47" d="M418.0,406.0L430.0,406.0L436.0,394.0L430.0,382.0L418.0,382.0L412.0,394.0L418.0,406.0" fill="#fff" stroke="#000"/><path id="p48" d="M382.0,430.0L394.0,430.0L400.0,418.0L394.0,406.0L382.0,406.0L376.0,418.0L382.0,430.0" fill="#fff" stroke="#000"/><path id="p49" d="M418.0,430.0L430.0,430.0L436.0,418.0L430.0,406.0L418.0,406.0L412.0,418.0L418.0,430.0" fill="#fff" stroke="#000"/><path id="p50" d="M346.0,454.0L358.0,454.0L364.0,442.0L358.0,430.0L346.0,430.0L340.0,442.0L346.0,454.0" fill="#fff" stroke="#000"/><path id="p51" d="M175.0,365.5L187.0,365.5L193.0,353.5L187.0,341.5L175.0,341.5L169.0,353.5L175.0,365.5" fill="#fff" stroke="#000"/><path id="p52" d="M175.0,341.5L187.0,341.5L193.0,329.5L187.0,317.5L175.0,317.5L169.0,329.5L175.0,341.5" fill="#fff" stroke="#000"/><path id="p53" d="M305.5,143.5L317.5,143.5L323.5,131.5L317.5,119.5L305.5,119.5L299.5,131.5L305.5,143.5" fill="#fff" stroke="#000"/><path id="p54" d="M377.5,215.5L389.5,215.5L395.5,203.5L389.5,191.5L377.5,191.5L371.5,203.5L377.5,215.5" fill="#fff" stroke="#000"/><path id="p55" d="M377.5,239.5L389.5,239.5L395.5,227.5L389.5,215.5L377.5,215.5L371.5,227.5L377.5,239.5" fill="#fff" stroke="#000"/><path id="p56" d="M341.5,191.5L353.5,191.5L359.5,179.5L353.5,167.5L341.5,167.5L335.5,179.5L341.5,191.5" fill="#fff" stroke="#000"/><path id="p57" d="M287.5,83.5L299.5,83.5L305.5,71.5L299.5,59.5L287.5,59.5L281.5,71.5L287.5,83.5" fill="#fff" stroke="#000"/><path id="p58" d="M269.5,71.5L281.5,71.5L287.5,59.5L281.5,47.5L269.5,47.5L263.5,59.5L269.5,71.5" fill="#fff" stroke="#000"/><path id="p59" d="M323.5,179.5L335.5,179.5L341.5,167.5L335.5,155.5L323.5,155.5L317.5,167.5L323.5,179.5" fill="#fff" stroke="#000"/><path id="p60" d="M359.5,251.5L371.5,251.5L377.5,239.5L371.5,227.5L359.5,227.5L353.5,239.5L359.5,251.5" fill="#fff" stroke="#000"/><path id="p61" d="M323.5,131.5L335.5,131.5L341.5,119.5L335.5,107.5L323.5,107.5L317.5,119.5L323.5,131.5" fill="#fff" stroke="#000"/><path id="p62" d="M341.5,143.5L353.5,143.5L359.5,131.5L353.5,119.5L341.5,119.5L335.5,131.5L341.5,143.5" fill="#fff" stroke="#000"/><path id="p63" d="M305.5,95.5L317.5,95.5L323.5,83.5L317.5,71.5L305.5,71.5L299.5,83.5L305.5,95.5" fill="#fff" stroke="#000"/><path id="p64" d="M341.5,239.5L353.5,239.5L359.5,227.5L353.5,215.5L341.5,215.5L335.5,227.5L341.5,239.5" fill="#fff" stroke="#000"/><path id="p65" d="M359.5,203.5L371.5,203.5L377.5,191.5L371.5,179.5L359.5,179.5L353.5,191.5L359.5,203.5" fill="#fff" stroke="#000"/><path id="p66" d="M305.5,215.5L317.5,215.5L323.5,203.5L317.5,191.5L305.5,191.5L299.5,203.5L305.5,215.5" fill="#fff" stroke="#000"/><path id="p67" d="M287.5,59.5L299.5,59.5L305.5,47.5L299.5,35.5L287.5,35.5L281.5,47.5L287.5,59.5" fill="#fff" stroke="#000"/><path id="p68" d="M323.5,107.5L335.5,107.5L341.5,95.5L335.5,83.5L323.5,83.5L317.5,95.5L323.5,107.5" fill="#fff" stroke="#000"/><path id="p69" d="M269.5,47.5L281.5,47.5L287.5,35.5L281.5,23.5L269.5,23.5L263.5,35.5L269.5,47.5" fill="#fff" stroke="#000"/><path id="p70" d="M287.5,35.5L299.5,35.5L305.5,23.5L299.5,11.5L287.5,11.5L281.5,23.5L287.5,35.5" fill="#fff" stroke="#000"/><path id="p71" d="M359.5,179.5L371.5,179.5L377.5,167.5L371.5,155.5L359.5,155.5L353.5,167.5L359.5,179.5" fill="#fff" stroke="#000"/><path id="p72" d="M323.5,155.5L335.5,155.5L341.5,143.5L335.5,131.5L323.5,131.5L317.5,143.5L323.5,155.5" fill="#fff" stroke="#000"/><path id="p73" d="M287.5,107.5L299.5,107.5L305.5,95.5L299.5,83.5L287.5,83.5L281.5,95.5L287.5,107.5" fill="#fff" stroke="#000"/><path id="p74" d="M359.5,275.5L371.5,275.5L377.5,263.5L371.5,251.5L359.5,251.5L353.5,263.5L359.5,275.5" fill="#fff" stroke="#000"/><path id="p75" d="M341.5,263.5L353.5,263.5L359.5,251.5L353.5,239.5L341.5,239.5L335.5,251.5L341.5,263.5" fill="#fff" stroke="#000"/><path id="p76" d="M341.5,215.5L353.5,215.5L359.5,203.5L353.5,191.5L341.5,191.5L335.5,203.5L341.5,215.5" fill="#fff" stroke="#000"/><path id="p77" d="M323.5,227.5L335.5,227.5L341.5,215.5L335.5,203.5L323.5,203.5L317.5,215.5L323.5,227.5" fill="#fff" stroke="#000"/><path id="p78" d="M341.5,167.5L353.5,167.5L359.5,155.5L353.5,143.5L341.5,143.5L335.5,155.5L341.5,167.5" fill="#fff" stroke="#000"/><path id="p79" d="M359.5,227.5L371.5,227.5L377.5,215.5L371.5,203.5L359.5,203.5L353.5,215.5L359.5,227.5" fill="#fff" stroke="#000"/><path id="p80" d="M323.5,203.5L335.5,203.5L341.5,191.5L335.5,179.5L323.5,179.5L317.5,191.5L323.5,203.5" fill="#fff" stroke="#000"/><path id="p81" d="M305.5,119.5L317.5,119.5L323.5,107.5L317.5,95.5L305.5,95.5L299.5,107.5L305.5,119.5" fill="#fff" stroke="#000"/><path id="p82" d="M341.5,287.5L353.5,287.5L359.5,275.5L353.5,263.5L341.5,263.5L335.5,275.5L341.5,287.5" fill="#fff" stroke="#000"/><path id="p83" d="M193.0,437.5L205.0,437.5L211.0,425.5L205.0,413.5L193.0,413.5L187.0,425.5L193.0,437.5" fill="#fff" stroke="#000"/><path id="p84" d="M229.0,437.5L241.0,437.5L247.0,425.5L241.0,413.5L229.0,413.5L223.0,425.5L229.0,437.5" fill="#fff" stroke="#000"/><path id="p85" d="M193.0,461.5L205.0,461.5L211.0,449.5L205.0,437.5L193.0,437.5L187.0,449.5L193.0,461.5" fill="#fff" stroke="#000"/><path id="p86" d="M175.0,401.5L187.0,401.5L193.0,389.5L187.0,377.5L175.0,377.5L169.0,389.5L175.0,401.5" fill="#fff" stroke="#000"/><path id="p87" d="M175.0,449.5L187.0,449.5L193.0,437.5L187.0,425.5L175.0,425.5L169.0,437.5L175.0,449.5" fill="#fff" stroke="#000"/><path id="p88" d="M193.0,485.5L205.0,485.5L211.0,473.5L205.0,461.5L193.0,461.5L187.0,473.5L193.0,485.5" fill="#fff" stroke="#000"/><path id="p89" d="M193.0,413.5L205.0,413.5L211.0,401.5L205.0,389.5L193.0,389.5L187.0,401.5L193.0,413.5" fill="#fff" stroke="#000"/><path id="p90" d="M211.0,473.5L223.0,473.5L229.0,461.5L223.0,449.5L211.0,449.5L205.0,461.5L211.0,473.5" fill="#fff" stroke="#000"/><path id="p91" d="M175.0,425.5L187.0,425.5L193.0,413.5L187.0,401.5L175.0,401.5L169.0,413.5L175.0,425.5" fill="#fff" stroke="#000"/><path id="p92" d="M211.0,449.5L223.0,449.5L229.0,437.5L223.0,425.5L211.0,425.5L205.0,437.5L211.0,449.5" fill="#fff" stroke="#000"/><path id="p93" d="M211.0,425.5L223.0,425.5L229.0,413.5L223.0,401.5L211.0,401.5L205.0,413.5L211.0,425.5" fill="#fff" stroke="#000"/><path id="p94" d="M364.0,694.0L376.0,694.0L382.0,682.0L376.0,670.0L364.0,670.0L358.0,682.0L364.0,694.0" fill="#fff" stroke="#000"/><path id="p95" d="M346.0,682.0L358.0,682.0L364.0,670.0L358.0,658.0L346.0,658.0L340.0,670.0L346.0,682.0" fill="#fff" stroke="#000"/><path id="p96" d="M382.0,706.0L394.0,706.0L400.0,694.0L394.0,682.0L382.0,682.0L376.0,694.0L382.0,706.0" fill="#fff" stroke="#000"/><path id="p97" d="M364.0,718.0L376.0,718.0L382.0,706.0L376.0,694.0L364.0,694.0L358.0,706.0L364.0,718.0" fill="#fff" stroke="#000"/><path id="p98" d="M382.0,682.0L394.0,682.0L400.0,670.0L394.0,658.0L382.0,658.0L376.0,670.0L382.0,682.0" fill="#fff" stroke="#000"/><path id="p99" d="M346.0,562.0L358.0,562.0L364.0,550.0L358.0,538.0L346.0,538.0L340.0,550.0L346.0,562.0" fill="#fff" stroke="#000"/><path id="p100" d="M220.0,550.0L232.0,550.0L238.0,538.0L232.0,526.0L220.0,526.0L214.0,538.0L220.0,550.0" fill="#fff" stroke="#000"/><path id="p101" d="M274.0,538.0L286.0,538.0L292.0,526.0L286.0,514.0L274.0,514.0L268.0,526.0L274.0,538.0" fill="#fff" stroke="#000"/><path id="p102" d="M220.0,526.0L232.0,526.0L238.0,514.0L232.0,502.0L220.0,502.0L214.0,514.0L220.0,526.0" fill="#fff" stroke="#000"/><path id="p103" d="M328.0,574.0L340.0,574.0L346.0,562.0L340.0,550.0L328.0,550.0L322.0,562.0L328.0,574.0" fill="#fff" stroke="#000"/><path id="p104" d="M238.0,538.0L250.0,538.0L256.0,526.0L250.0,514.0L238.0,514.0L232.0,526.0L238.0,538.0" fill="#fff" stroke="#000"/><path id="p105" d="M364.0,574.0L376.0,574.0L382.0,562.0L376.0,550.0L364.0,550.0L358.0,562.0L364.0,574.0" fill="#fff" stroke="#000"/><path id="p106" d="M310.0,562.0L322.0,562.0L328.0,550.0L322.0,538.0L310.0,538.0L304.0,550.0L310.0,562.0" fill="#fff" stroke="#000"/><path id="p107" d="M220.0,598.0L232.0,598.0L238.0,586.0L232.0,574.0L220.0,574.0L214.0,586.0L220.0,598.0" fill="#fff" stroke="#000"/><path id="p108" d="M220.0,574.0L232.0,574.0L238.0,562.0L232.0,550.0L220.0,550.0L214.0,562.0L220.0,574.0" fill="#fff" stroke="#000"/><path id="p109" d="M328.0,550.0L340.0,550.0L346.0,538.0L340.0,526.0L328.0,526.0L322.0,538.0L328.0,550.0" fill="#fff" stroke="#000"/><path id="p110" d="M346.0,610.0L358.0,610.0L364.0,598.0L358.0,586.0L346.0,586.0L340.0,598.0L346.0,610.0" fill="#fff" stroke="#000"/><path id="p111" d="M364.0,622.0L376.0,622.0L382.0,610.0L376.0,598.0L364.0,598.0L358.0,610.0L364.0,622.0" fill="#fff" stroke="#000"/><path id="p112" d="M256.0,574.0L268.0,574.0L274.0,562.0L268.0,550.0L256.0,550.0L250.0,562.0L256.0,574.0" fill="#fff" stroke="#000"/><path id="p113" d="M400.0,574.0L412.0,574.0L418.0,562.0L412.0,550.0L400.0,550.0L394.0,562.0L400.0,574.0" fill="#fff" stroke="#000"/><path id="p114" d="M310.0,610.0L322.0,610.0L328.0,598.0L322.0,586.0L310.0,586.0L304.0,598.0L310.0,610.0" fill="#fff" stroke="#000"/><path id="p115" d="M238.0,562.0L250.0,562.0L256.0,550.0L250.0,538.0L238.0,538.0L232.0,550.0L238.0,562.0" fill="#fff" stroke="#000"/><path id="p116" d="M292.0,574.0L304.0,574.0L310.0,562.0L304.0,550.0L292.0,550.0L286.0,562.0L292.0,574.0" fill="#fff" stroke="#000"/><path id="p117" d="M346.0,586.0L358.0,586.0L364.0,574.0L358.0,562.0L346.0,562.0L340.0,574.0L346.0,586.0" fill="#fff" stroke="#000"/><path id="p118" d="M310.0,586.0L322.0,586.0L328.0,574.0L322.0,562.0L310.0,562.0L304.0,574.0L310.0,586.0" fill="#fff" stroke="#000"/><path id="p119" d="M382.0,562.0L394.0,562.0L400.0,550.0L394.0,538.0L382.0,538.0L376.0,550.0L382.0,562.0" fill="#fff" stroke="#000"/><path id="p120" d="M328.0,598.0L340.0,598.0L346.0,586.0L340.0,574.0L328.0,574.0L322.0,586.0L328.0,598.0" fill="#fff" stroke="#000"/><path id="p121" d="M292.0,526.0L304.0,526.0L310.0,514.0L304.0,502.0L292.0,502.0L286.0,514.0L292.0,526.0" fill="#fff" stroke="#000"/><path id="p122" d="M292.0,550.0L304.0,550.0L310.0,538.0L304.0,526.0L292.0,526.0L286.0,538.0L292.0,550.0" fill="#fff" stroke="#000"/><path id="p123" d="M364.0,598.0L376.0,598.0L382.0,586.0L376.0,574.0L364.0,574.0L358.0,586.0L364.0,598.0" fill="#fff" stroke="#000"/><path id="p124" d="M238.0,586.0L250.0,586.0L256.0,574.0L250.0,562.0L238.0,562.0L232.0,574.0L238.0,586.0" fill="#fff" stroke="#000"/><path id="p125" d="M202.0,538.0L214.0,538.0L220.0,526.0L214.0,514.0L202.0,514.0L196.0,526.0L202.0,538.0" fill="#fff" stroke="#000"/><path id="p126" d="M256.0,550.0L268.0,550.0L274.0,538.0L268.0,526.0L256.0,526.0L250.0,538.0L256.0,550.0" fill="#fff" stroke="#000"/><path id="p127" d="M364.0,550.0L376.0,550.0L382.0,538.0L376.0,526.0L364.0,526.0L358.0,538.0L364.0,550.0" fill="#fff" stroke="#000"/><path id="p128" d="M382.0,586.0L394.0,586.0L400.0,574.0L394.0,562.0L382.0,562.0L376.0,574.0L382.0,586.0" fill="#fff" stroke="#000"/><path id="p129" d="M274.0,586.0L286.0,586.0L292.0,574.0L286.0,562.0L274.0,562.0L268.0,574.0L274.0,586.0" fill="#fff" stroke="#000"/><path id="p130" d="M292.0,598.0L304.0,598.0L310.0,586.0L304.0,574.0L292.0,574.0L286.0,586.0L292.0,598.0" fill="#fff" stroke="#000"/><path id="p131" d="M310.0,538.0L322.0,538.0L328.0,526.0L322.0,514.0L310.0,514.0L304.0,526.0L310.0,538.0" fill="#fff" stroke="#000"/><path id="p132" d="M346.0,538.0L358.0,538.0L364.0,526.0L358.0,514.0L346.0,514.0L340.0,526.0L346.0,538.0" fill="#fff" stroke="#000"/><path id="p133" d="M274.0,514.0L286.0,514.0L292.0,502.0L286.0,490.0L274.0,490.0L268.0,502.0L274.0,514.0" fill="#fff" stroke="#000"/><path id="p134" d="M202.0,562.0L214.0,562.0L220.0,550.0L214.0,538.0L202.0,538.0L196.0,550.0L202.0,562.0" fill="#fff" stroke="#000"/><path id="p135" d="M274.0,562.0L286.0,562.0L292.0,550.0L286.0,538.0L274.0,538.0L268.0,550.0L274.0,562.0" fill="#fff" stroke="#000"/><path id="p136" d="M80.5,425.5L92.5,425.5L98.5,413.5L92.5,401.5L80.5,401.5L74.5,413.5L80.5,425.5" fill="#fff" stroke="#000"/><path id="p137" d="M116.5,377.5L128.5,377.5L134.5,365.5L128.5,353.5L116.5,353.5L110.5,365.5L116.5,377.5" fill="#fff" stroke="#000"/><path id="p138" d="M98.5,365.5L110.5,365.5L116.5,353.5L110.5,341.5L98.5,341.5L92.5,353.5L98.5,365.5" fill="#fff" stroke="#000"/><path id="p139" d="M44.5,377.5L56.5,377.5L62.5,365.5L56.5,353.5L44.5,353.5L38.5,365.5L44.5,377.5" fill="#fff" stroke="#000"/><path id="p140" d="M116.5,353.5L128.5,353.5L134.5,341.5L128.5,329.5L116.5,329.5L110.5,341.5L116.5,353.5" fill="#fff" stroke="#000"/><path id="p141" d="M116.5,401.5L128.5,401.5L134.5,389.5L128.5,377.5L116.5,377.5L110.5,389.5L116.5,401.5" fill="#fff" stroke="#000"/><path id="p142" d="M62.5,413.5L74.5,413.5L80.5,401.5L74.5,389.5L62.5,389.5L56.5,401.5L62.5,413.5" fill="#fff" stroke="#000"/><path id="p143" d="M98.5,413.5L110.5,413.5L116.5,401.5L110.5,389.5L98.5,389.5L92.5,401.5L98.5,413.5" fill="#fff" stroke="#000"/><path id="p144" d="M62.5,365.5L74.5,365.5L80.5,353.5L74.5,341.5L62.5,341.5L56.5,353.5L62.5,365.5" fill="#fff" stroke="#000"/><path id="p145" d="M134.5,413.5L146.5,413.5L152.5,401.5L146.5,389.5L134.5,389.5L128.5,401.5L134.5,413.5" fill="#fff" stroke="#000"/><path id="p146" d="M134.5,389.5L146.5,389.5L152.5,377.5L146.5,365.5L134.5,365.5L128.5,377.5L134.5,389.5" fill="#fff" stroke="#000"/><path id="p147" d="M98.5,389.5L110.5,389.5L116.5,377.5L110.5,365.5L98.5,365.5L92.5,377.5L98.5,389.5" fill="#fff" stroke="#000"/><path id="p148" d="M80.5,377.5L92.5,377.5L98.5,365.5L92.5,353.5L80.5,353.5L74.5,365.5L80.5,377.5" fill="#fff" stroke="#000"/><path id="p149" d="M80.5,401.5L92.5,401.5L98.5,389.5L92.5,377.5L80.5,377.5L74.5,389.5L80.5,401.5" fill="#fff" stroke="#000"/><path id="p150" d="M62.5,389.5L74.5,389.5L80.5,377.5L74.5,365.5L62.5,365.5L56.5,377.5L62.5,389.5" fill="#fff" stroke="#000"/></svg>