<?xml-stylesheet href="../css/map.css" type="text/css"?><svg version="1.1" xmlns="http://www.w3.org/2000/svg" style="overflow: hidden; position: relative;"><path id="p1" d="M498.0,705.0L515.0,705.0L523.5,690.0L515.0,675.0L498.0,675.0L489.5,690.0L498.0,705.0"/><path id="p2" d="M523.5,690.0L540.5,690.0L549.0,675.0L540.5,660.0L523.5,660.0L515.0,675.0L523.5,690.0"/><path id="p3" d="M549.0,645.0L566.0,645.0L574.5,630.0L566.0,615.0L549.0,615.0L540.5,630.0L549.0,645.0"/><path id="p4" d="M574.5,630.0L591.5,630.0L600.0,615.0L591.5,600.0L574.5,600.0L566.0,615.0L574.5,630.0"/><path id="p5" d="M574.5,540.0L591.5,540.0L600.0,525.0L591.5,510.0L574.5,510.0L566.0,525.0L574.5,540.0"/><path id="p6" d="M549.0,525.0L566.0,525.0L574.5,510.0L566.0,495.0L549.0,495.0L540.5,510.0L549.0,525.0"/><path id="p7" d="M549.0,615.0L566.0,615.0L574.5,600.0L566.0,585.0L549.0,585.0L540.5,600.0L549.0,615.0"/><path id="p8" d="M600.0,555.0L617.0,555.0L625.5,540.0L617.0,525.0L600.0,525.0L591.5,540.0L600.0,555.0"/><path id="p9" d="M498.0,645.0L515.0,645.0L523.5,630.0L515.0,615.0L498.0,615.0L489.5,630.0L498.0,645.0"/><path id="p10" d="M574.5,480.0L591.5,480.0L600.0,465.0L591.5,450.0L574.5,450.0L566.0,465.0L574.5,480.0"/><path id="p11" d="M523.5,570.0L540.5,570.0L549.0,555.0L540.5,540.0L523.5,540.0L515.0,555.0L523.5,570.0"/><path id="p12" d="M600.0,675.0L617.0,675.0L625.5,660.0L617.0,645.0L600.0,645.0L591.5,660.0L600.0,675.0"/><path id="p13" d="M625.5,420.0L642.5,420.0L651.0,405.0L642.5,390.0L625.5,390.0L617.0,405.0L625.5,420.0"/><path id="p14" d="M574.5,690.0L591.5,690.0L600.0,675.0L591.5,660.0L574.5,660.0L566.0,675.0L574.5,690.0"/><path id="p15" d="M574.5,510.0L591.5,510.0L600.0,495.0L591.5,480.0L574.5,480.0L566.0,495.0L574.5,510.0"/><path id="p16" d="M574.5,720.0L591.5,720.0L600.0,705.0L591.5,690.0L574.5,690.0L566.0,705.0L574.5,720.0"/><path id="p17" d="M472.5,660.0L489.5,660.0L498.0,645.0L489.5,630.0L472.5,630.0L464.0,645.0L472.5,660.0"/><path id="p18" d="M498.0,615.0L515.0,615.0L523.5,600.0L515.0,585.0L498.0,585.0L489.5,600.0L498.0,615.0"/><path id="p19" d="M549.0,705.0L566.0,705.0L574.5,690.0L566.0,675.0L549.0,675.0L540.5,690.0L549.0,705.0"/><path id="p20" d="M600.0,645.0L617.0,645.0L625.5,630.0L617.0,615.0L600.0,615.0L591.5,630.0L600.0,645.0"/><path id="p21" d="M523.5,540.0L540.5,540.0L549.0,525.0L540.5,510.0L523.5,510.0L515.0,525.0L523.5,540.0"/><path id="p22" d="M574.5,660.0L591.5,660.0L600.0,645.0L591.5,630.0L574.5,630.0L566.0,645.0L574.5,660.0"/><path id="p23" d="M498.0,675.0L515.0,675.0L523.5,660.0L515.0,645.0L498.0,645.0L489.5,660.0L498.0,675.0"/><path id="p24" d="M549.0,495.0L566.0,495.0L574.5,480.0L566.0,465.0L549.0,465.0L540.5,480.0L549.0,495.0"/><path id="p25" d="M625.5,630.0L642.5,630.0L651.0,615.0L642.5,600.0L625.5,600.0L617.0,615.0L625.5,630.0"/><path id="p26" d="M498.0,585.0L515.0,585.0L523.5,570.0L515.0,555.0L498.0,555.0L489.5,570.0L498.0,585.0"/><path id="p27" d="M600.0,435.0L617.0,435.0L625.5,420.0L617.0,405.0L600.0,405.0L591.5,420.0L600.0,435.0"/><path id="p28" d="M523.5,660.0L540.5,660.0L549.0,645.0L540.5,630.0L523.5,630.0L515.0,645.0L523.5,660.0"/><path id="p29" d="M625.5,540.0L642.5,540.0L651.0,525.0L642.5,510.0L625.5,510.0L617.0,525.0L625.5,540.0"/><path id="p30" d="M498.0,555.0L515.0,555.0L523.5,540.0L515.0,525.0L498.0,525.0L489.5,540.0L498.0,555.0"/><path id="p31" d="M523.5,600.0L540.5,600.0L549.0,585.0L540.5,570.0L523.5,570.0L515.0,585.0L523.5,600.0"/><path id="p32" d="M549.0,555.0L566.0,555.0L574.5,540.0L566.0,525.0L549.0,525.0L540.5,540.0L549.0,555.0"/><path id="p33" d="M549.0,465.0L566.0,465.0L574.5,450.0L566.0,435.0L549.0,435.0L540.5,450.0L549.0,465.0"/><path id="p34" d="M600.0,465.0L617.0,465.0L625.5,450.0L617.0,435.0L600.0,435.0L591.5,450.0L600.0,465.0"/><path id="p35" d="M600.0,585.0L617.0,585.0L625.5,570.0L617.0,555.0L600.0,555.0L591.5,570.0L600.0,585.0"/><path id="p36" d="M600.0,405.0L617.0,405.0L625.5,390.0L617.0,375.0L600.0,375.0L591.5,390.0L600.0,405.0"/><path id="p37" d="M523.5,480.0L540.5,480.0L549.0,465.0L540.5,450.0L523.5,450.0L515.0,465.0L523.5,480.0"/><path id="p38" d="M549.0,585.0L566.0,585.0L574.5,570.0L566.0,555.0L549.0,555.0L540.5,570.0L549.0,585.0"/><path id="p39" d="M574.5,450.0L591.5,450.0L600.0,435.0L591.5,420.0L574.5,420.0L566.0,435.0L574.5,450.0"/><path id="p40" d="M574.5,570.0L591.5,570.0L600.0,555.0L591.5,540.0L574.5,540.0L566.0,555.0L574.5,570.0"/><path id="p41" d="M625.5,390.0L642.5,390.0L651.0,375.0L642.5,360.0L625.5,360.0L617.0,375.0L625.5,390.0"/><path id="p42" d="M472.5,690.0L489.5,690.0L498.0,675.0L489.5,660.0L472.5,660.0L464.0,675.0L472.5,690.0"/><path id="p43" d="M600.0,525.0L617.0,525.0L625.5,510.0L617.0,495.0L600.0,495.0L591.5,510.0L600.0,525.0"/><path id="p44" d="M600.0,495.0L617.0,495.0L625.5,480.0L617.0,465.0L600.0,465.0L591.5,480.0L600.0,495.0"/><path id="p45" d="M600.0,615.0L617.0,615.0L625.5,600.0L617.0,585.0L600.0,585.0L591.5,600.0L600.0,615.0"/><path id="p46" d="M549.0,675.0L566.0,675.0L574.5,660.0L566.0,645.0L549.0,645.0L540.5,660.0L549.0,675.0"/><path id="p47" d="M625.5,570.0L642.5,570.0L651.0,555.0L642.5,540.0L625.5,540.0L617.0,555.0L625.5,570.0"/><path id="p48" d="M574.5,600.0L591.5,600.0L600.0,585.0L591.5,570.0L574.5,570.0L566.0,585.0L574.5,600.0"/><path id="p49" d="M625.5,600.0L642.5,600.0L651.0,585.0L642.5,570.0L625.5,570.0L617.0,585.0L625.5,600.0"/><path id="p50" d="M523.5,630.0L540.5,630.0L549.0,615.0L540.5,600.0L523.5,600.0L515.0,615.0L523.5,630.0"/><path id="p51" d="M281.25,519.375L298.25,519.375L306.75,504.375L298.25,489.375L281.25,489.375L272.75,504.375L281.25,519.375"/><path id="p52" d="M281.25,489.375L298.25,489.375L306.75,474.375L298.25,459.375L281.25,459.375L272.75,474.375L281.25,489.375"/><path id="p53" d="M466.125,241.875L483.125,241.875L491.625,226.875L483.125,211.875L466.125,211.875L457.625,226.875L466.125,241.875"/><path id="p54" d="M568.125,331.875L585.125,331.875L593.625,316.875L585.125,301.875L568.125,301.875L559.625,316.875L568.125,331.875"/><path id="p55" d="M568.125,361.875L585.125,361.875L593.625,346.875L585.125,331.875L568.125,331.875L559.625,346.875L568.125,361.875"/><path id="p56" d="M517.125,301.875L534.125,301.875L542.625,286.875L534.125,271.875L517.125,271.875L508.625,286.875L517.125,301.875"/><path id="p57" d="M440.625,166.875L457.625,166.875L466.125,151.875L457.625,136.875L440.625,136.875L432.125,151.875L440.625,166.875"/><path id="p58" d="M415.125,151.875L432.125,151.875L440.625,136.875L432.125,121.875L415.125,121.875L406.625,136.875L415.125,151.875"/><path id="p59" d="M491.625,286.875L508.625,286.875L517.125,271.875L508.625,256.875L491.625,256.875L483.125,271.875L491.625,286.875"/><path id="p60" d="M542.625,376.875L559.625,376.875L568.125,361.875L559.625,346.875L542.625,346.875L534.125,361.875L542.625,376.875"/><path id="p61" d="M491.625,226.875L508.625,226.875L517.125,211.875L508.625,196.875L491.625,196.875L483.125,211.875L491.625,226.875"/><path id="p62" d="M517.125,241.875L534.125,241.875L542.625,226.875L534.125,211.875L517.125,211.875L508.625,226.875L517.125,241.875"/><path id="p63" d="M466.125,181.875L483.125,181.875L491.625,166.875L483.125,151.875L466.125,151.875L457.625,166.875L466.125,181.875"/><path id="p64" d="M517.125,361.875L534.125,361.875L542.625,346.875L534.125,331.875L517.125,331.875L508.625,346.875L517.125,361.875"/><path id="p65" d="M542.625,316.875L559.625,316.875L568.125,301.875L559.625,286.875L542.625,286.875L534.125,301.875L542.625,316.875"/><path id="p66" d="M466.125,331.875L483.125,331.875L491.625,316.875L483.125,301.875L466.125,301.875L457.625,316.875L466.125,331.875"/><path id="p67" d="M440.625,136.875L457.625,136.875L466.125,121.875L457.625,106.875L440.625,106.875L432.125,121.875L440.625,136.875"/><path id="p68" d="M491.625,196.875L508.625,196.875L517.125,181.875L508.625,166.875L491.625,166.875L483.125,181.875L491.625,196.875"/><path id="p69" d="M415.125,121.875L432.125,121.875L440.625,106.875L432.125,91.875L415.125,91.875L406.625,106.875L415.125,121.875"/><path id="p70" d="M440.625,106.875L457.625,106.875L466.125,91.875L457.625,76.875L440.625,76.875L432.125,91.875L440.625,106.875"/><path id="p71" d="M542.625,286.875L559.625,286.875L568.125,271.875L559.625,256.875L542.625,256.875L534.125,271.875L542.625,286.875"/><path id="p72" d="M491.625,256.875L508.625,256.875L517.125,241.875L508.625,226.875L491.625,226.875L483.125,241.875L491.625,256.875"/><path id="p73" d="M440.625,196.875L457.625,196.875L466.125,181.875L457.625,166.875L440.625,166.875L432.125,181.875L440.625,196.875"/><path id="p74" d="M542.625,406.875L559.625,406.875L568.125,391.875L559.625,376.875L542.625,376.875L534.125,391.875L542.625,406.875"/><path id="p75" d="M517.125,391.875L534.125,391.875L542.625,376.875L534.125,361.875L517.125,361.875L508.625,376.875L517.125,391.875"/><path id="p76" d="M517.125,331.875L534.125,331.875L542.625,316.875L534.125,301.875L517.125,301.875L508.625,316.875L517.125,331.875"/><path id="p77" d="M491.625,346.875L508.625,346.875L517.125,331.875L508.625,316.875L491.625,316.875L483.125,331.875L491.625,346.875"/><path id="p78" d="M517.125,271.875L534.125,271.875L542.625,256.875L534.125,241.875L517.125,241.875L508.625,256.875L517.125,271.875"/><path id="p79" d="M542.625,346.875L559.625,346.875L568.125,331.875L559.625,316.875L542.625,316.875L534.125,331.875L542.625,346.875"/><path id="p80" d="M491.625,316.875L508.625,316.875L517.125,301.875L508.625,286.875L491.625,286.875L483.125,301.875L491.625,316.875"/><path id="p81" d="M466.125,211.875L483.125,211.875L491.625,196.875L483.125,181.875L466.125,181.875L457.625,196.875L466.125,211.875"/><path id="p82" d="M517.125,421.875L534.125,421.875L542.625,406.875L534.125,391.875L517.125,391.875L508.625,406.875L517.125,421.875"/><path id="p83" d="M306.75,609.375L323.75,609.375L332.25,594.375L323.75,579.375L306.75,579.375L298.25,594.375L306.75,609.375"/><path id="p84" d="M357.75,609.375L374.75,609.375L383.25,594.375L374.75,579.375L357.75,579.375L349.25,594.375L357.75,609.375"/><path id="p85" d="M306.75,639.375L323.75,639.375L332.25,624.375L323.75,609.375L306.75,609.375L298.25,624.375L306.75,639.375"/><path id="p86" d="M281.25,564.375L298.25,564.375L306.75,549.375L298.25,534.375L281.25,534.375L272.75,549.375L281.25,564.375"/><path id="p87" d="M281.25,624.375L298.25,624.375L306.75,609.375L298.25,594.375L281.25,594.375L272.75,609.375L281.25,624.375"/><path id="p88" d="M306.75,669.375L323.75,669.375L332.25,654.375L323.75,639.375L306.75,639.375L298.25,654.375L306.75,669.375"/><path id="p89" d="M306.75,579.375L323.75,579.375L332.25,564.375L323.75,549.375L306.75,549.375L298.25,564.375L306.75,579.375"/><path id="p90" d="M332.25,654.375L349.25,654.375L357.75,639.375L349.25,624.375L332.25,624.375L323.75,639.375L332.25,654.375"/><path id="p91" d="M281.25,594.375L298.25,594.375L306.75,579.375L298.25,564.375L281.25,564.375L272.75,579.375L281.25,594.375"/><path id="p92" d="M332.25,624.375L349.25,624.375L357.75,609.375L349.25,594.375L332.25,594.375L323.75,609.375L332.25,624.375"/><path id="p93" d="M332.25,594.375L349.25,594.375L357.75,579.375L349.25,564.375L332.25,564.375L323.75,579.375L332.25,594.375"/><path id="p94" d="M549.0,930.0L566.0,930.0L574.5,915.0L566.0,900.0L549.0,900.0L540.5,915.0L549.0,930.0"/><path id="p95" d="M523.5,915.0L540.5,915.0L549.0,900.0L540.5,885.0L523.5,885.0L515.0,900.0L523.5,915.0"/><path id="p96" d="M574.5,945.0L591.5,945.0L600.0,930.0L591.5,915.0L574.5,915.0L566.0,930.0L574.5,945.0"/><path id="p97" d="M549.0,960.0L566.0,960.0L574.5,945.0L566.0,930.0L549.0,930.0L540.5,945.0L549.0,960.0"/><path id="p98" d="M574.5,915.0L591.5,915.0L600.0,900.0L591.5,885.0L574.5,885.0L566.0,900.0L574.5,915.0"/><path id="p99" d="M523.5,765.0L540.5,765.0L549.0,750.0L540.5,735.0L523.5,735.0L515.0,750.0L523.5,765.0"/><path id="p100" d="M345.0,750.0L362.0,750.0L370.5,735.0L362.0,720.0L345.0,720.0L336.5,735.0L345.0,750.0"/><path id="p101" d="M421.5,735.0L438.5,735.0L447.0,720.0L438.5,705.0L421.5,705.0L413.0,720.0L421.5,735.0"/><path id="p102" d="M345.0,720.0L362.0,720.0L370.5,705.0L362.0,690.0L345.0,690.0L336.5,705.0L345.0,720.0"/><path id="p103" d="M498.0,780.0L515.0,780.0L523.5,765.0L515.0,750.0L498.0,750.0L489.5,765.0L498.0,780.0"/><path id="p104" d="M370.5,735.0L387.5,735.0L396.0,720.0L387.5,705.0L370.5,705.0L362.0,720.0L370.5,735.0"/><path id="p105" d="M549.0,780.0L566.0,780.0L574.5,765.0L566.0,750.0L549.0,750.0L540.5,765.0L549.0,780.0"/><path id="p106" d="M472.5,765.0L489.5,765.0L498.0,750.0L489.5,735.0L472.5,735.0L464.0,750.0L472.5,765.0"/><path id="p107" d="M345.0,810.0L362.0,810.0L370.5,795.0L362.0,780.0L345.0,780.0L336.5,795.0L345.0,810.0"/><path id="p108" d="M345.0,780.0L362.0,780.0L370.5,765.0L362.0,750.0L345.0,750.0L336.5,765.0L345.0,780.0"/><path id="p109" d="M498.0,750.0L515.0,750.0L523.5,735.0L515.0,720.0L498.0,720.0L489.5,735.0L498.0,750.0"/><path id="p110" d="M523.5,825.0L540.5,825.0L549.0,810.0L540.5,795.0L523.5,795.0L515.0,810.0L523.5,825.0"/><path id="p111" d="M549.0,840.0L566.0,840.0L574.5,825.0L566.0,810.0L549.0,810.0L540.5,825.0L549.0,840.0"/><path id="p112" d="M396.0,780.0L413.0,780.0L421.5,765.0L413.0,750.0L396.0,750.0L387.5,765.0L396.0,780.0"/><path id="p113" d="M600.0,780.0L617.0,780.0L625.5,765.0L617.0,750.0L600.0,750.0L591.5,765.0L600.0,780.0"/><path id="p114" d="M472.5,825.0L489.5,825.0L498.0,810.0L489.5,795.0L472.5,795.0L464.0,810.0L472.5,825.0"/><path id="p115" d="M370.5,765.0L387.5,765.0L396.0,750.0L387.5,735.0L370.5,735.0L362.0,750.0L370.5,765.0"/><path id="p116" d="M447.0,780.0L464.0,780.0L472.5,765.0L464.0,750.0L447.0,750.0L438.5,765.0L447.0,780.0"/><path id="p117" d="M523.5,795.0L540.5,795.0L549.0,780.0L540.5,765.0L523.5,765.0L515.0,780.0L523.5,795.0"/><path id="p118" d="M472.5,795.0L489.5,795.0L498.0,780.0L489.5,765.0L472.5,765.0L464.0,780.0L472.5,795.0"/><path id="p119" d="M574.5,765.0L591.5,765.0L600.0,750.0L591.5,735.0L574.5,735.0L566.0,750.0L574.5,765.0"/><path id="p120" d="M498.0,810.0L515.0,810.0L523.5,795.0L515.0,780.0L498.0,780.0L489.5,795.0L498.0,810.0"/><path id="p121" d="M447.0,720.0L464.0,720.0L472.5,705.0L464.0,690.0L447.0,690.0L438.5,705.0L447.0,720.0"/><path id="p122" d="M447.0,750.0L464.0,750.0L472.5,735.0L464.0,720.0L447.0,720.0L438.5,735.0L447.0,750.0"/><path id="p123" d="M549.0,810.0L566.0,810.0L574.5,795.0L566.0,780.0L549.0,780.0L540.5,795.0L549.0,810.0"/><path id="p124" d="M370.5,795.0L387.5,795.0L396.0,780.0L387.5,765.0L370.5,765.0L362.0,780.0L370.5,795.0"/><path id="p125" d="M319.5,735.0L336.5,735.0L345.0,720.0L336.5,705.0L319.5,705.0L311.0,720.0L319.5,735.0"/><path id="p126" d="M396.0,750.0L413.0,750.0L421.5,735.0L413.0,720.0L396.0,720.0L387.5,735.0L396.0,750.0"/><path id="p127" d="M549.0,750.0L566.0,750.0L574.5,735.0L566.0,720.0L549.0,720.0L540.5,735.0L549.0,750.0"/><path id="p128" d="M574.5,795.0L591.5,795.0L600.0,780.0L591.5,765.0L574.5,765.0L566.0,780.0L574.5,795.0"/><path id="p129" d="M421.5,795.0L438.5,795.0L447.0,780.0L438.5,765.0L421.5,765.0L413.0,780.0L421.5,795.0"/><path id="p130" d="M447.0,810.0L464.0,810.0L472.5,795.0L464.0,780.0L447.0,780.0L438.5,795.0L447.0,810.0"/><path id="p131" d="M472.5,735.0L489.5,735.0L498.0,720.0L489.5,705.0L472.5,705.0L464.0,720.0L472.5,735.0"/><path id="p132" d="M523.5,735.0L540.5,735.0L549.0,720.0L540.5,705.0L523.5,705.0L515.0,720.0L523.5,735.0"/><path id="p133" d="M421.5,705.0L438.5,705.0L447.0,690.0L438.5,675.0L421.5,675.0L413.0,690.0L421.5,705.0"/><path id="p134" d="M319.5,765.0L336.5,765.0L345.0,750.0L336.5,735.0L319.5,735.0L311.0,750.0L319.5,765.0"/><path id="p135" d="M421.5,765.0L438.5,765.0L447.0,750.0L438.5,735.0L421.5,735.0L413.0,750.0L421.5,765.0"/><path id="p136" d="M147.375,594.375L164.375,594.375L172.875,579.375L164.375,564.375L147.375,564.375L138.875,579.375L147.375,594.375"/><path id="p137" d="M198.375,534.375L215.375,534.375L223.875,519.375L215.375,504.375L198.375,504.375L189.875,519.375L198.375,534.375"/><path id="p138" d="M172.875,519.375L189.875,519.375L198.375,504.375L189.875,489.375L172.875,489.375L164.375,504.375L172.875,519.375"/><path id="p139" d="M96.375,534.375L113.375,534.375L121.875,519.375L113.375,504.375L96.375,504.375L87.875,519.375L96.375,534.375"/><path id="p140" d="M198.375,504.375L215.375,504.375L223.875,489.375L215.375,474.375L198.375,474.375L189.875,489.375L198.375,504.375"/><path id="p141" d="M198.375,564.375L215.375,564.375L223.875,549.375L215.375,534.375L198.375,534.375L189.875,549.375L198.375,564.375"/><path id="p142" d="M121.875,579.375L138.875,579.375L147.375,564.375L138.875,549.375L121.875,549.375L113.375,564.375L121.875,579.375"/><path id="p143" d="M172.875,579.375L189.875,579.375L198.375,564.375L189.875,549.375L172.875,549.375L164.375,564.375L172.875,579.375"/><path id="p144" d="M121.875,519.375L138.875,519.375L147.375,504.375L138.875,489.375L121.875,489.375L113.375,504.375L121.875,519.375"/><path id="p145" d="M223.875,579.375L240.875,579.375L249.375,564.375L240.875,549.375L223.875,549.375L215.375,564.375L223.875,579.375"/><path id="p146" d="M223.875,549.375L240.875,549.375L249.375,534.375L240.875,519.375L223.875,519.375L215.375,534.375L223.875,549.375"/><path id="p147" d="M172.875,549.375L189.875,549.375L198.375,534.375L189.875,519.375L172.875,519.375L164.375,534.375L172.875,549.375"/><path id="p148" d="M147.375,534.375L164.375,534.375L172.875,519.375L164.375,504.375L147.375,504.375L138.875,519.375L147.375,534.375"/><path id="p149" d="M147.375,564.375L164.375,564.375L172.875,549.375L164.375,534.375L147.375,534.375L138.875,549.375L147.375,564.375"/><path id="p150" d="M121.875,549.375L138.875,549.375L147.375,534.375L138.875,519.375L121.875,519.375L113.375,534.375L121.875,549.375"/></svg>